<?xml version="1.0" encoding="UTF-8" standalone="no"?>
<svg width="71px" height="65px" viewBox="0 0 71 65" version="1.1" xmlns="http://www.w3.org/2000/svg" xmlns:xlink="http://www.w3.org/1999/xlink">
    <!-- Generator: Sketch 39.1 (31720) - http://www.bohemiancoding.com/sketch -->
    <title>Slice 1</title>
    <desc>Created with Sketch.</desc>
    <defs></defs>
    <g id="Page-1" stroke="none" stroke-width="1" fill="none" fill-rule="evenodd">
        <path d="M25.4558441,46.7989899 L39.7989899,32.4558441 L45.4558441,26.7989899 L62.4239415,9.83089254 C63.9874002,8.26743377 66.5243425,8.26950854 68.0832611,9.82842712 C69.6453583,11.3905243 69.6421654,13.9263771 68.0807957,15.4877468 L51.1126984,32.4558441 L45.4558441,38.1126984 L28.4877468,55.0807957 C27.0850548,56.4834877 24.8987881,56.6260532 23.3382286,55.5147675 C22.8345026,55.319773 22.36228,55.0191343 21.9558443,54.6126986 L17.7842715,50.4411258 L12.1274173,44.7842715 L2.83089252,35.4877468 C1.2695229,33.9263771 1.26632996,31.3905243 2.82842712,29.8284271 C4.38734571,28.2695085 6.924288,28.2674338 8.48774677,29.8308925 L17.7842715,39.1274173 L23.4411258,44.7842715 L25.4558441,46.7989899 Z" id="Combined-Shape" stroke="#71BA51" stroke-width="2" fill="#71BA51"></path>
    </g>
</svg>