<?xml version="1.0" encoding="UTF-8" standalone="no"?>
<svg width="94px" height="94px" viewBox="0 0 94 94" version="1.1" xmlns="http://www.w3.org/2000/svg" xmlns:xlink="http://www.w3.org/1999/xlink">
    <!-- Generator: Sketch 39.1 (31720) - http://www.bohemiancoding.com/sketch -->
    <title>Slice 1</title>
    <desc>Created with Sketch.</desc>
    <defs></defs>
    <g id="Page-1" stroke="none" stroke-width="1" fill="none" fill-rule="evenodd">
        <path d="M50.745166,18.7486526 C50.745166,16.5405425 48.954305,14.745166 46.745166,14.745166 C44.5405222,14.745166 42.745166,16.537588 42.745166,18.7486526 L42.745166,42.745166 L18.7486526,42.745166 C16.5405425,42.745166 14.745166,44.536027 14.745166,46.745166 C14.745166,48.9498098 16.537588,50.745166 18.7486526,50.745166 L42.745166,50.745166 L42.745166,74.7416794 C42.745166,76.9497895 44.536027,78.745166 46.745166,78.745166 C48.9498098,78.745166 50.745166,76.952744 50.745166,74.7416794 L50.745166,50.745166 L74.7416794,50.745166 C76.9497895,50.745166 78.745166,48.954305 78.745166,46.745166 C78.745166,44.5405222 76.952744,42.745166 74.7416794,42.745166 L50.745166,42.745166 L50.745166,18.7486526 Z" id="path-1" stroke="#D33257" stroke-width="2" fill="#D33257" transform="translate(46.745166, 46.745166) rotate(-315.000000) translate(-46.745166, -46.745166) "></path>
    </g>
</svg>