<?xml version="1.0" encoding="UTF-8" standalone="no"?>
<svg width="89px" height="102px" viewBox="0 0 89 102" version="1.1" xmlns="http://www.w3.org/2000/svg" xmlns:xlink="http://www.w3.org/1999/xlink">
    <!-- Generator: Sketch 39.1 (31720) - http://www.bohemiancoding.com/sketch -->
    <title>tech-icons</title>
    <desc>Created with Sketch.</desc>
    <defs></defs>
    <g id="Page-1" stroke="none" stroke-width="1" fill="none" fill-rule="evenodd">
        <g id="PS">
            <polygon id="Polygon-Copy-2-Copy-5" fill="#EEEFF3" points="44.1694305 0 88.3345912 25.5 88.3345912 76.5 44.1672956 102 2.81954404e-14 76.5 0 25.5"></polygon>
            <g id="Group-2" transform="translate(18.464212, 29.000000)" fill="#33373B">
                <path d="M41.5098615,17.1301308 C38.3505543,17.1301308 37.2709565,18.7303194 37.2709565,20.0505032 C37.2709565,21.4906891 37.9906884,22.4908674 42.2297546,24.6912275 C48.5082225,27.7317632 50.4678152,30.6521356 50.4678152,34.9328538 C50.4678152,41.3337694 45.5889873,44.7743119 38.9904773,44.7743119 C35.5112893,44.7743119 32.5119226,44.0541384 30.7924018,43.0541213 C30.512506,42.9341193 30.4725209,42.7341158 30.4725209,42.4139491 L30.4725209,36.5330424 C30.4725209,36.1330355 30.6724465,36.0128722 30.9525034,36.2130369 C33.4718876,37.8533874 36.3511378,38.5733997 38.9904773,38.5733997 C42.1497844,38.5733997 43.4694542,37.2532159 43.4694542,35.4528626 C43.4694542,34.0126768 42.5496355,32.7324937 38.5104948,30.6521356 C32.8318035,27.9317666 30.4725209,25.171397 30.4725209,20.5706734 C30.4725209,15.4097789 34.5116616,11.129222 41.5098615,11.129222 C44.9490643,11.129222 47.3484932,11.6493922 48.668163,12.2494024 C48.9880438,12.4494058 49.068014,12.7694113 49.068014,13.0494161 L49.068014,18.5301547 C49.068014,18.8501602 48.8680885,19.0503249 48.4680762,18.9301615 C46.7085703,17.8103037 44.1092159,17.1301308 41.5098615,17.1301308 L41.5098615,17.1301308 L41.5098615,17.1301308 Z" id="Path"></path>
                <path d="M0.87983358,0.200003411 C3.43936411,0.0800013643 7.23843295,0 11.1974422,0 C22.2747679,0 26.5936431,6.08091015 26.5936431,13.8421715 C26.5936431,24.0036351 19.2354161,28.3643547 10.1976533,28.3643547 C8.67805802,28.3643547 8.15825163,28.2843533 7.07833129,28.2843533 L7.07833129,43.646712 C7.07833129,43.9667175 6.95837597,44.1267202 6.59851001,44.1267202 L0.479982512,44.1267202 C0.160101658,44.1267202 1.13686838e-13,44.0067182 1.13686838e-13,43.646712 L1.13686838e-13,0.680172889 C0.00016123027,0.400168114 0.560113956,0.200003411 0.87983358,0.200003411 Z M7.09413185,21.852792 C8.01395054,21.9327934 8.73384369,21.9327934 10.3334092,21.9327934 C15.0124728,21.9327934 19.4113183,20.2926041 19.4113183,13.9316892 C19.4113183,8.85095739 16.2520112,6.29042985 10.933347,6.29042985 C9.33378153,6.29042985 7.81402501,6.37043122 7.09413185,6.4104319 L7.09413185,21.852792 Z" id="Combined-Shape"></path>
            </g>
        </g>
    </g>
</svg>