<?xml version="1.0" encoding="UTF-8" standalone="no"?>
<svg width="89px" height="102px" viewBox="0 0 89 102" version="1.1" xmlns="http://www.w3.org/2000/svg" xmlns:xlink="http://www.w3.org/1999/xlink">
    <!-- Generator: Sketch 39.1 (31720) - http://www.bohemiancoding.com/sketch -->
    <title>tech-icons</title>
    <desc>Created with Sketch.</desc>
    <defs></defs>
    <g id="Page-1" stroke="none" stroke-width="1" fill="none" fill-rule="evenodd">
        <g id="AFTER-EFFECTS">
            <polygon id="Polygon-Copy-2-Copy-10" fill="#EEEFF3" points="44.1694305 0 88.3345912 25.5 88.3345912 76.5 44.1672956 102 2.81954404e-14 76.5 0 25.5"></polygon>
            <g id="Group-5" transform="translate(13.000000, 29.000000)" fill="#33373B">
                <path d="M44.9685729,30.7283285 C45.0527745,36.4098989 47.747565,40.2396354 54.1477347,40.2396354 C56.6320212,40.2396354 58.7793316,39.9031697 61.011183,38.9351733 C61.3058886,38.808935 61.5165623,38.8510144 61.5165623,39.2297292 L61.5165623,44.4903357 C61.5165623,44.91113 61.3902599,45.1216968 61.0955544,45.3320939 C58.8638727,46.4261588 56.0847109,46.9312816 52.6321061,46.9312816 C41.5161379,46.9312816 37.3474801,38.7247762 37.3474801,29.5923538 C37.3474801,19.6602527 42.484626,11.5379061 51.5374854,11.5379061 C60.7166472,11.5379061 63.916817,19.2394585 63.916817,25.5101408 C63.916817,27.5302924 63.7905146,29.1715596 63.5800106,29.9712383 C63.495809,30.3078736 63.3695066,30.4342816 63.0325305,30.5184404 C62.1903448,30.6446787 59.7060584,30.8128267 56.000679,30.8128267 L44.9685729,30.8128267 L44.9685729,30.7283285 Z M53.6199469,24.9269675 C55.7672573,24.9269675 56.5252414,24.9269675 56.7357454,24.8428087 C56.7357454,24.5482527 56.8199469,24.3376859 56.8199469,24.1272888 C56.8199469,21.8546606 55.7251565,17.6462094 51.3461645,17.6462094 C47.303809,17.6462094 45.5776764,21.1812202 45.1564987,24.9269675 L53.6199469,24.9269675 Z" id="Combined-Shape"></path>
                <path d="M10.5980683,33.2471552 L7.2717659,45.8305993 C7.18756431,46.167065 7.06126192,46.2934729 6.6400842,46.2934729 L0.45041842,46.2934729 C0.0294104625,46.2934729 -0.0549608903,46.1672347 0.0294104625,45.6622816 L11.9875643,3.87164621 C12.1980683,3.11421661 12.3243707,2.52493502 12.4085723,0.420794224 C12.4085723,0.126238267 12.5348747,0 12.7453786,0 L21.5877341,0 C21.8824396,0 22.008742,0.0841588448 22.0931134,0.420794224 L35.482864,45.7464404 C35.5670656,46.0829061 35.482864,46.2934729 35.1460577,46.2934729 L28.1985776,46.2934729 C27.8617712,46.2934729 27.6510975,46.1672347 27.5668959,45.8728484 L24.1141213,33.2473249 L10.5980683,33.2473249 L10.5980683,33.2471552 Z M22.4982918,26.3973718 C21.3192997,21.7258773 18.4559363,11.5412996 17.4032467,6.61732852 L17.3190451,6.61732852 C16.4349284,11.5412996 14.1188753,19.8740433 12.3925729,26.3973718 L22.4982918,26.3973718 L22.4982918,26.3973718 Z" id="Combined-Shape"></path>
            </g>
        </g>
    </g>
</svg>