<?xml version="1.0" encoding="UTF-8" standalone="no"?>
<svg width="89px" height="102px" viewBox="0 0 89 102" version="1.1" xmlns="http://www.w3.org/2000/svg" xmlns:xlink="http://www.w3.org/1999/xlink">
    <!-- Generator: Sketch 39.1 (31720) - http://www.bohemiancoding.com/sketch -->
    <title>tech-icons</title>
    <desc>Created with Sketch.</desc>
    <defs></defs>
    <g id="Page-1" stroke="none" stroke-width="1" fill="none" fill-rule="evenodd">
        <g id="ACROBAT">
            <polygon id="Polygon-Copy-2-Copy-10" fill="#EEEFF3" points="44.1694305 0 88.3345912 25.5 88.3345912 76.5 44.1672956 102 2.81954404e-14 76.5 0 25.5"></polygon>
            <path d="M45.331413,31.4086109 C44.8619149,29.728459 43.7253767,28.8883831 42.7617748,29.011909 C41.6004318,29.1601401 40.3649733,29.8519849 39.87077,30.9392124 C38.4870803,34.0524643 41.3779855,43.2192837 41.8227785,44.751304 C39.0060885,53.2509838 29.3696713,70.0528015 24.6503831,71.1894392 C24.5515623,70.0776063 25.1445864,66.8655336 31.3710902,62.8626958 C31.6923572,62.5167236 32.062935,62.0967354 32.235971,61.8248787 C26.973069,64.3946165 20.1534415,68.5209803 24.2551001,71.609527 C24.4774468,71.7824633 24.823419,71.9307941 25.2188016,72.0790252 C28.3567587,73.2402685 32.7547799,69.4351718 37.1777055,60.8118665 C42.0452248,59.2058302 45.9739471,57.9950768 51.5333112,57.1550009 C57.6115839,61.2813646 61.6884377,62.121341 64.455817,61.0589184 C65.2217774,60.7623565 66.4325307,59.7987546 66.7784033,58.5385909 C64.5299326,61.3059702 59.2670306,59.3787665 55.0666509,56.7349131 C58.9457636,56.3148253 62.9486014,56.0678731 64.6781637,56.6113872 C66.8772241,57.303232 66.8031085,58.3903598 66.7784033,58.5386905 C66.9513396,57.9457661 67.1984911,56.9820646 66.728993,56.2161042 C64.8758052,53.201673 56.3761254,54.9560401 53.2875787,55.2772075 C48.4199597,52.3368919 45.0595563,47.0986952 43.7006715,43.3183036 C44.9607356,38.4505851 46.3197201,34.917345 45.331413,31.4086109 M43.2311733,41.6132473 C42.4158026,38.7223421 41.2791648,32.2981968 43.1076474,30.2226623 C46.6903975,32.2734916 44.4666319,37.141011 43.2311733,41.6132473 M49.9271753,55.9442475 C45.2325923,56.8090287 42.0452248,58.0196824 37.4741677,59.8233602 C38.8331522,57.1796065 41.4027904,50.4341941 42.6382489,45.986663 C44.3678111,49.4458871 46.4679512,52.830896 49.9271753,55.9442475" id="Shape" fill="#33373B"></path>
        </g>
    </g>
</svg>