<?xml version="1.0" encoding="UTF-8" standalone="no"?>
<svg width="89px" height="102px" viewBox="0 0 89 102" version="1.1" xmlns="http://www.w3.org/2000/svg" xmlns:xlink="http://www.w3.org/1999/xlink">
    <!-- Generator: Sketch 39.1 (31720) - http://www.bohemiancoding.com/sketch -->
    <title>tech-icons</title>
    <desc>Created with Sketch.</desc>
    <defs></defs>
    <g id="Page-1" stroke="none" stroke-width="1" fill="none" fill-rule="evenodd">
        <g id="JAVA">
            <polygon id="Polygon-Copy-2-Copy-10" fill="#EEEFF3" points="44.1694305 0 88.3345912 25.5 88.3345912 76.5 44.1672956 102 2.81954404e-14 76.5 0 25.5"></polygon>
            <g id="Group" transform="translate(21.000000, 18.000000)" fill="#33373B">
                <path d="M14.5114364,47.1555606 C14.5114364,47.1555606 12.1914,48.5087283 16.1625273,48.9666226 C20.9734363,49.5170806 23.4322363,49.4381388 28.733891,48.4317562 C28.733891,48.4317562 30.1277454,49.3083201 32.0743637,50.0675384 C20.1894546,55.1762598 5.17647273,49.7716304 14.5114364,47.1555606" id="Shape"></path>
                <path d="M13.0591636,40.4890137 C13.0591636,40.4890137 10.4570182,42.4208681 14.4310909,42.8331371 C19.5702546,43.3648852 23.6287637,43.408377 30.6515454,42.052091 C30.6515454,42.052091 31.622891,43.0397638 33.1502727,43.5798822 C18.780709,47.7941507 2.7756,43.9122248 13.0591636,40.4890137" id="Shape"></path>
                <path d="M25.3022727,29.1803382 C28.230709,32.5618628 24.5328546,35.6048083 24.5328546,35.6048083 C24.5328546,35.6048083 31.9686546,31.7548857 28.5537273,26.9338663 C25.364291,22.4379681 22.9184183,20.2041335 36.1593817,12.5021548 C36.1593817,12.5021548 15.3754364,17.7083635 25.3022727,29.1803382" id="Shape"></path>
                <path d="M41.0210183,52.0865402 C41.0210183,52.0865402 42.737891,53.5053559 39.1302,54.6029892 C32.2700727,56.6873109 10.5776182,57.3167103 4.55154546,54.6860339 C2.38532727,53.740868 6.4476,52.4292223 7.72543637,52.1539935 C9.0580909,51.8641578 9.81965454,51.9181534 9.81965454,51.9181534 C7.4106,50.2160667 -5.7514909,55.2602891 3.13396363,56.7048717 C27.365891,60.646209 47.3064546,54.9300801 41.0210183,52.0865402" id="Shape"></path>
                <path d="M11.7196364,37.1647671 C14.7287455,37.56883 20.7273273,37.4774154 26.3148546,37.0078686 C30.881291,36.6215305 35.4665454,35.8001109 35.4665454,35.8001109 C35.4665454,35.8001109 33.8563637,36.4917118 32.6914363,37.2894982 C21.4864363,40.2451317 -0.159545455,38.870136 6.07205454,35.846885 C11.3421273,33.2918677 15.6271091,33.5817033 15.6271091,33.5817033 C15.6271091,33.5817033 4.59294546,36.2102461 11.7196364,37.1647671 Z" id="Shape"></path>
                <path d="M35.4210546,44.6785003 C46.8114546,38.7421225 41.5449817,33.0373179 37.8690546,33.8058909 C36.9680727,33.9939723 36.5663454,34.1569433 36.5663454,34.1569433 C36.5663454,34.1569433 36.9008183,33.6314317 37.5396546,33.4039616 C44.8118183,30.8397536 50.4045817,40.9667666 35.1921273,44.9776906 C35.1921273,44.9778548 35.3683637,44.8198073 35.4210546,44.6785003" id="Shape"></path>
                <path d="M28.5537273,0.0654838045 C28.5537273,0.0654838045 34.861909,6.39443607 22.570691,16.1265767 C12.7143818,23.9334279 20.3231454,28.3846854 22.5666,33.4704301 C16.8133091,28.2642215 12.5911636,23.6811758 15.4237091,19.4157018 C19.5812183,13.1543669 31.0989273,10.1186428 28.5537273,0.0654838045" id="Shape"></path>
                <path d="M16.7463818,60.7647034 C27.6797454,61.4666438 44.4691637,60.3752472 44.8668,55.1865993 C44.8668,55.1865993 44.1024546,57.1535754 35.8309637,58.7156676 C26.499109,60.4770015 14.9895818,60.2713594 8.16316363,59.1425433 C8.16332727,59.1423792 9.56061817,60.302542 16.7463818,60.7647034" id="Shape"></path>
            </g>
        </g>
    </g>
</svg>