<?xml version="1.0" encoding="UTF-8" standalone="no"?>
<svg width="89px" height="102px" viewBox="0 0 89 102" version="1.1" xmlns="http://www.w3.org/2000/svg" xmlns:xlink="http://www.w3.org/1999/xlink">
    <!-- Generator: Sketch 39.1 (31720) - http://www.bohemiancoding.com/sketch -->
    <title>tech-icons</title>
    <desc>Created with Sketch.</desc>
    <defs></defs>
    <g id="Page-1" stroke="none" stroke-width="1" fill="none" fill-rule="evenodd">
        <g id="jQuery">
            <polygon id="Polygon-Copy-2-Copy-9" fill="#EEEFF3" points="44.1694305 0 88.3345912 25.5 88.3345912 76.5 44.1672956 102 2.81954404e-14 76.5 0 25.5"></polygon>
            <g id="Group" transform="translate(21.105166, 29.000000)" fill="#33373B">
                <path d="M44.3762865,34.0635706 L44.1728648,34.5904826 C40.7072523,41.3381317 34.5673878,45.478509 25.8093362,45.6610924 C21.7151009,45.7454381 17.8138682,44.695087 15.2656383,43.552452 C9.76580822,41.0816218 5.14019551,36.4991742 2.6137963,31.6031594 C-1.01008819,24.584612 -1.66351862,14.8213591 5.87152157,7.52893662 C5.98762086,7.52893662 4.95761206,9.11016877 5.0737113,9.11016877 L4.86632034,9.7849337 C-0.563552585,26.7845441 16.1651595,41.35252 32.4269939,39.686446 C36.3351727,39.2860524 41.3190061,37.1456585 44.3762865,34.0635706" id="Shape"></path>
                <path d="M34.7222149,27.2203377 C38.8134734,27.2486183 43.0868191,25.3364536 45.6171875,22.6517823 C43.4033633,28.271681 36.9930965,31.884154 28.396294,30.735069 C21.1986362,29.7720405 14.3418339,22.528737 13.6353153,15.2710449 C13.1188225,9.98902494 14.9600376,6.83648362 17.9935028,3.01265041 C16.9391827,5.01263376 16.5452391,6.55516616 16.4470012,7.53903294 C15.2944432,18.9648867 25.5741889,27.1607996 34.7222149,27.2203377" id="Shape"></path>
                <path d="M44.8203938,12.1902303 C44.1843287,13.6489133 40.5222407,16.4040379 38.9052856,16.7483665 C32.501965,18.1122847 28.4007837,15.0758426 26.2529474,11.6206493 C25.9334264,11.1041564 25.343007,9.69508857 25.237327,9.3363716 C24.40429,6.50384748 24.7873183,2.21958642 27.272537,0.00179293573 C26.5238457,2.11043328 26.4146925,4.55992913 26.8086361,6.15207661 C27.0472846,7.11510507 27.7746415,8.79556741 28.5024946,9.85286446 C29.8272168,11.7789214 30.6671999,12.2467914 32.3685005,13.2693579 C33.1345572,13.7297858 33.9566788,14.0989219 34.3119227,14.2006328 C35.9249085,14.6749528 39.3304867,15.9262448 44.8203938,12.1902303" id="Shape"></path>
            </g>
        </g>
    </g>
</svg>