<?xml version="1.0" encoding="UTF-8" standalone="no"?>
<svg width="89px" height="102px" viewBox="0 0 89 102" version="1.1" xmlns="http://www.w3.org/2000/svg" xmlns:xlink="http://www.w3.org/1999/xlink">
    <!-- Generator: Sketch 39.1 (31720) - http://www.bohemiancoding.com/sketch -->
    <title>tech-icons</title>
    <desc>Created with Sketch.</desc>
    <defs></defs>
    <g id="Page-1" stroke="none" stroke-width="1" fill="none" fill-rule="evenodd">
        <g id="INDESIGN">
            <polygon id="Polygon-Copy-2-Copy-10" fill="#EEEFF3" points="44.1694305 0 88.3345912 25.5 88.3345912 76.5 44.1672956 102 2.81954404e-14 76.5 0 25.5"></polygon>
            <polygon id="Shape" fill="#33373B" points="28.8948019 28 28.8948019 76.448 20 76.448 20 28"></polygon>
            <path d="M67.7112295,25 L67.7112295,66.1882353 C67.7112295,69.7821176 67.8556256,73.6637647 68.0007319,76.0362353 L60.0461619,76.0362353 L59.6849348,70.5014118 L59.540302,70.5014118 C57.4434807,74.3830588 53.1764566,76.8270588 48.0421087,76.8270588 C39.6534034,76.8270588 33.000529,69.7110588 33.000529,58.9289412 C32.9280942,47.2122353 40.3043696,40.2397647 48.7657464,40.2397647 C53.6108285,40.2397647 57.0820169,42.2524706 58.6729783,44.8402353 L58.8176112,44.8402353 L58.8176112,25 L67.7112295,25 L67.7112295,25 Z M58.8166643,55.6218824 C58.8166643,54.9028235 58.7439928,54.0402353 58.5995967,53.3216471 C57.8042343,49.8712941 54.9840121,47.068 50.9340556,47.068 C45.2209397,47.068 42.0394904,52.0995294 42.0394904,58.6409412 C42.0394904,65.0381176 45.2209397,69.7105882 50.8620942,69.7105882 C54.4776788,69.7105882 57.6598382,67.2665882 58.5273986,63.4569412 C58.7444662,62.6665882 58.8171377,61.804 58.8171377,60.8694118 L58.8166643,55.6218824 L58.8166643,55.6218824 L58.8166643,55.6218824 Z" id="Shape" fill="#33373B"></path>
        </g>
    </g>
</svg>