<?xml version="1.0" encoding="UTF-8" standalone="no"?>
<svg width="89px" height="102px" viewBox="0 0 89 102" version="1.1" xmlns="http://www.w3.org/2000/svg" xmlns:xlink="http://www.w3.org/1999/xlink">
    <!-- Generator: Sketch 39.1 (31720) - http://www.bohemiancoding.com/sketch -->
    <title>tech-icons</title>
    <desc>Created with Sketch.</desc>
    <defs></defs>
    <g id="Page-1" stroke="none" stroke-width="1" fill="none" fill-rule="evenodd">
        <g id="AI">
            <polygon id="Polygon-Copy-2-Copy-6" fill="#EEEFF3" points="44.1694305 0 88.3345912 25.5 88.3345912 76.5 44.1672956 102 2.81954404e-14 76.5 0 25.5"></polygon>
            <g id="Group-3" transform="translate(17.808249, 28.000000)" fill="#33373B">
                <path d="M41.2893758,13.7592649 C41.2893758,13.4262644 41.414251,13.2595963 41.7890444,13.2595963 L48.3250183,13.2595963 C48.657851,13.2595963 48.8245191,13.3844715 48.8245191,13.7592649 L48.8245191,46.6059704 C48.8245191,46.9388031 48.7412689,47.1054712 48.3250183,47.1054712 L41.8722945,47.1054712 C41.4560439,47.1054712 41.3310009,46.8973458 41.3310009,46.5643454 L41.3310009,13.7592649 L41.2893758,13.7592649 L41.2893758,13.7592649 L41.2893758,13.7592649 Z" id="Path"></path>
                <path d="M40.7858469,4.24625983 C40.7858469,1.58192019 42.6591425,-2.84217094e-14 45.0322745,-2.84217094e-14 C47.571739,-2.84217094e-14 49.2785344,1.70679538 49.2785344,4.24625983 C49.2785344,6.9938496 47.4884889,8.49251967 44.9490244,8.49251967 C42.5342673,8.49268751 40.7858469,6.9938496 40.7858469,4.24625983 L40.7858469,4.24625983 Z" id="Path"></path>
                <path d="M10.4783114,34.1464817 L7.18942797,46.6356786 C7.10617785,46.9685113 6.98130266,47.0517614 6.56505205,47.0517614 L0.445328746,47.0517614 C0.0290781278,47.0517614 -0.0543398388,46.9268862 0.0290781278,46.4273855 L11.8521063,5.04636737 C12.0602316,4.29711626 12.1851068,3.63094743 12.2683569,1.59115156 C12.2683569,1.29977612 12.3932321,1.17490094 12.6013574,1.17490094 L21.3437953,1.17490094 C21.6351707,1.17490094 21.7600459,1.25815106 21.8434638,1.59115156 L35.0819119,46.5106356 C35.1651621,46.8434682 35.0819119,47.0517614 34.7489114,47.0517614 L27.8381441,47.0517614 C27.5051436,47.0517614 27.2968505,46.9685113 27.2137682,46.6773037 L23.8000096,34.1464817 L10.4783114,34.1464817 L10.4783114,34.1464817 Z M22.1188529,27.4550851 C20.9533512,22.8340319 18.2057614,12.7594242 17.1647992,7.88862058 L17.0815491,7.88862058 C16.2072549,12.7594242 14.0009588,21.0021935 12.2525384,27.4550851 L22.1188529,27.4550851 L22.1188529,27.4550851 Z" id="Combined-Shape"></path>
            </g>
        </g>
    </g>
</svg>