<?xml version="1.0" encoding="UTF-8" standalone="no"?>
<svg width="89px" height="102px" viewBox="0 0 89 102" version="1.1" xmlns="http://www.w3.org/2000/svg" xmlns:xlink="http://www.w3.org/1999/xlink">
    <!-- Generator: Sketch 39.1 (31720) - http://www.bohemiancoding.com/sketch -->
    <title>tech-icons</title>
    <desc>Created with Sketch.</desc>
    <defs></defs>
    <g id="Page-1" stroke="none" stroke-width="1" fill="none" fill-rule="evenodd">
        <g id="FOUNDATION">
            <polygon id="Polygon-Copy-2-Copy-10" fill="#EEEFF3" points="44.1694305 0 88.3345912 25.5 88.3345912 76.5 44.1672956 102 2.81954404e-14 76.5 0 25.5"></polygon>
            <g id="Group" transform="translate(26.000000, 23.000000)">
                <path d="M29.8710853,13.2732155 C30.4771801,10.7579918 31.7731133,9.6033495 31.7731133,9.6033495 C31.0902556,9.557658 30.6351169,9.87779977 30.6351169,9.87779977 C30.9537639,6.62968629 31.9439777,5.66885929 31.9439777,5.66885929 C28.3022694,4.70803227 26.2707826,6.85834465 26.2707826,6.85834465 C25.8611079,4.89119997 27.462936,3.74700442 27.462936,3.74700442 C25.596618,3.3352788 24.0530437,3.88427977 24.0530437,3.88427977 C24.0530437,1.00209999 25.1931383,0.0407708786 25.1931383,0.0407708786 C19.502857,0.0407708786 16.2720225,4.34069268 16.2720225,4.34069268 C16.0445031,2.51062251 16.5456052,0.907804786 16.5456052,0.907804786 C11.037579,3.24108402 9.58123546,8.40814014 9.58123546,8.40814014 C9.2171246,7.53899739 9.17166071,5.56572704 9.17166071,5.56572704 C9.17166071,5.56572704 6.89546818,9.39728584 6.48579351,12.0506064 C6.43244168,12.3961869 6.39916108,12.8259508 6.38162881,13.3121106 C3.54114518,12.8042601 1.60037292,10.7479467 1.60037292,10.7479467 C1.60037292,10.7479467 1.35376875,13.0296096 2.98417408,15.0289894 C3.9045455,16.1573029 5.35799511,16.7578328 6.44974602,17.0669348 C6.58817631,19.7450418 6.84990437,22.321554 6.84990437,22.321554 C6.84990437,22.321554 6.48589343,21.8642372 5.71200794,21.7727538 C5.71200794,21.7727538 6.53135732,22.6877889 6.53135732,24.7465175 C6.53135732,24.7465175 6.21261043,24.4719667 5.66644413,24.6092421 C5.66644413,24.6092421 6.5312574,25.3869014 6.62238504,26.7136622 C6.62238504,26.7136622 5.62088032,27.3999384 5.07461409,28.0862148 C5.07461409,28.0862148 4.20960098,28.1319063 3.7544624,28.2691817 C3.7544624,28.2691817 4.48288397,28.6809073 4.61947551,29.0469413 C4.61947551,29.0469413 2.47987453,31.2429453 1.38734208,33.0271231 C1.38734208,33.0271231 2.34338292,32.4324306 3.02614074,32.6153974 C3.02614074,32.6153974 1.5238337,34.4453673 1.0231313,37.4648224 C1.0231313,37.4648224 1.75145296,37.0989891 2.07009992,37.2819559 C2.07009992,37.2819559 1.15962292,39.2033087 1.11415901,41.2163457 L0.112754213,41.8111385 L0.886639686,42.3601395 C0.886639686,42.3601395 0.294809646,44.8305936 0.158218112,46.2488379 C0.158218112,46.2488379 0.613356695,45.7914208 0.977567474,45.6541454 C0.977567474,45.6541454 1.47836981,46.8435303 2.16122757,47.7585653 C2.84408531,48.6736005 4.39195618,49.4513602 5.30233327,49.4513602 L7.01347448,49.384279 C6.801243,50.3046364 6.38257546,51.0851076 5.50007623,51.1259789 L5.402154,51.283941 C5.38366867,51.2825351 5.36548312,51.2817318 5.34769724,51.28133 C5.33021113,51.5500563 4.79053967,51.5984591 4.6421575,51.7846394 C4.19101575,52.3503103 3.84698893,53.1274675 3.61787086,53.8204721 C3.45000416,54.3283005 3.52934116,54.3282 3.41303352,54.8498865 C3.37496376,55.0206021 3.19870372,55.2029663 3.13995038,55.3758912 C3.63146007,55.2099958 4.99367836,55.0991311 5.71120859,55.0462093 L5.72329899,55.6844844 C5.72329899,55.6844844 5.84160503,55.7950479 6.03754945,55.8751838 C6.04434405,55.8738782 6.05083888,55.8719703 6.05903238,55.8726733 C6.12557954,55.878096 6.18982852,55.8879371 6.25267861,55.9036028 C7.32942359,55.8067971 8.07912826,55.9893623 9.32713723,55.8852258 C9.56994443,55.8562042 9.79766361,55.8218602 10.0101948,55.7002505 C10.0706468,55.51879 10.0787404,55.5076433 10.1072178,55.2732609 C10.113313,55.2314859 10.113313,55.1885058 10.123305,55.1375923 C10.1428895,55.1342785 10.1618744,55.1314666 10.1809592,55.1286549 C10.1882534,55.125843 10.1998442,55.1234331 10.2255239,55.1224289 C10.2308196,55.1208221 10.2353161,55.1183116 10.2413113,55.1178095 C10.2610956,55.1160018 10.28078,55.1143951 10.3005643,55.112688 C10.3141535,55.1075665 10.3271432,55.1061607 10.3388339,55.1093741 C10.5647545,55.089089 10.9273665,55.0699087 11.1531872,55.0575568 C11.8873043,55.0563519 12.8531373,55.1413079 12.8531373,55.1413079 C12.9128899,54.314342 12.9726424,53.0311639 14.3041851,49.2910885 L14.6342229,49.0853261 C14.6342229,49.0853261 18.7238754,50.5335961 22.5185622,49.0267807 C22.8188238,49.769594 23.7904522,52.2662581 23.9432309,53.8401546 C24.0738271,54.0246277 24.0593386,54.2587087 24.0637351,54.5067483 C24.0674322,54.7166281 24.0850183,54.926608 24.0906139,55.1358852 C24.2271054,55.1172069 24.7198143,55.0565526 25.3418203,55.0575568 C25.567641,55.0699087 25.930253,55.089089 26.1561737,55.1093741 C26.1679643,55.1061607 26.180854,55.1075665 26.1944433,55.112688 C26.2142275,55.1143951 26.2339119,55.1160018 26.2536961,55.1178095 C26.2596915,55.1183116 26.2641878,55.1208221 26.2695836,55.1224289 C26.2951632,55.1234331 26.3067541,55.125843 26.3141482,55.1286549 C26.3331331,55.1314666 26.3521179,55.1342785 26.3717024,55.1375923 C26.3816945,55.1885058 26.3816945,55.2314859 26.3878896,55.2732609 C26.4162671,55.5076433 26.4243607,55.51879 26.4848126,55.7002505 C26.5042972,55.7113972 26.5239815,55.7210378 26.5437659,55.7308789 C27.2232262,55.6442157 27.9117795,55.6283493 28.5955365,55.6608856 C29.1333096,55.6864928 29.6618898,55.787918 30.1911695,55.8847237 C30.1912694,55.8897448 30.1916691,55.8948663 30.1916691,55.8999876 C30.2450267,55.9057117 30.2971853,55.9095277 30.349244,55.912942 C30.6332185,55.9639558 30.9179924,56.0114548 31.2045648,56.0425854 C31.2100604,55.6822752 31.208062,55.367255 31.2005679,55.0905953 C31.7707153,55.1180103 32.59596,55.2320883 32.942185,55.2828009 C33.0794759,55.3158394 33.1909874,55.3362249 33.3079945,55.3615309 C33.3238819,55.3662506 33.3406685,55.3710709 33.355157,55.3758912 C33.3545575,55.3745856 33.3539579,55.3730793 33.3533585,55.3717739 C33.4708652,55.3982849 33.5975645,55.4318255 33.7648317,55.4902706 C33.7393519,55.1807733 33.7416502,55.1872002 33.7008826,54.7991739 C33.6695075,54.4991163 33.4553775,53.5873951 33.0547956,53.211319 C33.0547956,53.211319 33.491249,53.4009136 33.6245431,53.47643 C33.1942847,52.8905746 32.985051,52.0529641 31.6332244,51.4754435 C31.6332244,51.4754435 31.8801284,51.3584533 32.1058491,51.3289295 C31.8699364,51.1828171 31.6897795,51.1253763 31.4509691,51.1427492 C31.5321047,50.9111787 31.8891212,50.3270303 32.1886833,50.252016 C32.1886833,50.252016 32.0048293,50.1235776 31.704168,50.2228939 C31.5924568,50.2817406 31.4840429,50.3449053 31.3785267,50.4196184 C31.3386582,50.4479371 31.2805044,50.4186142 31.2687138,50.3747303 C31.1741889,50.023458 31.1127376,49.6665621 31.056982,49.3081601 C33.7811188,49.2089442 34.1632153,47.8044578 34.1632153,47.8044578 C34.3908346,47.987525 34.3907348,48.3991503 34.3907348,48.3991503 C35.574195,46.8436307 35.4377033,45.2881112 35.4377033,45.2881112 C35.7108864,45.3338028 35.9385057,45.51687 35.9385057,45.51687 C36.0750972,43.1378993 35.3467756,39.0661338 35.3467756,39.0661338 C35.7109862,39.2491006 35.9385057,39.0204422 35.9385057,39.0204422 C35.528831,38.8374754 35.4833671,38.3798574 35.4833671,38.3798574 C36.0751971,38.4256494 36.1662248,37.8766484 36.1662248,37.8766484 C35.5744947,37.8766484 34.9371009,37.6020976 34.4817625,35.4976777 C34.0264241,33.3932576 33.3437661,31.2429453 33.3437661,31.2429453 C34.0721876,31.2429453 34.4817625,30.9226026 34.4817625,30.9226026 C33.9809601,30.6937434 32.8884277,29.9161845 32.1602059,28.9553575 C31.4318842,27.9946309 29.5653665,26.4390111 29.5653665,26.4390111 L29.5653665,23.3281729 C29.5653665,21.223552 30.9083999,19.57675 30.9083999,19.57675 C29.9980228,19.57675 29.5653665,20.4001008 29.5653665,20.4001008 L29.5653665,17.0770744 C30.6609992,16.7710391 32.1364879,16.1697699 33.0670858,15.0289894 C34.6973912,13.0296096 34.450787,10.7479467 34.450787,10.7479467 C34.450787,10.7479467 32.6014761,12.7074247 29.8710853,13.2732155 Z" id="Combined-Shape" fill="#33373B"></path>
                <path d="M26.2696834,28.3040276 C26.1768572,28.5848045 25.8616075,28.6594172 24.9634208,28.8339487 L24.9022693,28.8457984 C24.0222681,29.01561 22.4489175,28.993417 21.5872017,28.8668867 C21.5500313,28.8615645 21.5141597,28.8560412 21.4799869,28.8503173 C20.681321,28.7145482 20.5903933,28.6106127 20.3334974,28.1945689 C20.0682079,27.7639642 19.9051374,26.4996653 19.8750614,26.2503201 L19.8735626,26.2377675 C19.8416879,25.9742632 19.8259003,25.8423101 20.1627328,25.6907751 C20.6157731,25.4866194 22.6265764,25.2014241 23.4505222,25.1641679 C24.1010056,25.1353471 25.4799106,25.2263285 26.1104099,25.3189164 C26.2092315,25.333578 26.2824734,25.3469339 26.3277374,25.3589844 C26.4002798,25.3783657 26.6673678,25.5089128 26.6537785,25.794309 C26.6360925,26.1704855 26.3951838,27.9244368 26.2696834,28.3040276 L26.2696834,28.3040276 L26.2696834,28.3040276 Z M17.4998475,26.2377675 L17.4982487,26.2503201 C17.4682725,26.4996653 17.305202,27.7639642 17.0399127,28.1945689 C16.7830167,28.6106127 16.6920889,28.7145482 15.8933232,28.8503173 C15.8592502,28.8560412 15.8233787,28.8615645 15.7861083,28.8668867 C14.9244925,28.993417 13.3511419,29.01561 12.4710407,28.8457984 L12.4099892,28.8339487 C11.5118024,28.6594172 11.1965528,28.5848045 11.1037265,28.3040276 C10.9782261,27.9244368 10.7373174,26.1704855 10.7196315,25.794309 C10.7059424,25.5089128 10.9731302,25.3783657 11.0456726,25.3589844 C11.0908367,25.3469339 11.1640786,25.333578 11.2629001,25.3189164 C11.8934993,25.2263285 13.2723045,25.1353471 13.9228878,25.1641679 C14.7468335,25.2014241 16.7575369,25.4866194 17.2105771,25.6907751 C17.5475096,25.8423101 17.5317222,25.9742632 17.4998475,26.2377675 L17.4998475,26.2377675 L17.4998475,26.2377675 Z M27.4230676,24.5676678 C26.7632916,24.4707617 25.6118059,24.3609013 24.2296034,24.4317984 C22.4309317,24.5247881 20.8897556,24.7757399 19.9690867,24.9255679 C19.6943049,24.9703557 19.4783764,25.0057038 19.3136072,25.0275955 L19.1338499,25.0520982 C18.9319102,25.0800151 18.7995153,25.0976893 18.686705,25.1033129 C18.5738946,25.0976893 18.4413998,25.0800151 18.2395601,25.0520982 L18.0597029,25.0275955 C17.8950337,25.0057038 17.6791051,24.9703557 17.4042234,24.9255679 C16.4836543,24.7757399 14.9424782,24.5247881 13.1438065,24.4317984 C11.7616041,24.3609013 10.6101184,24.4707617 9.95034236,24.5676678 C9.95034236,24.5676678 9.24630143,24.6577454 8.64417957,24.9137182 L8.7589884,25.6828418 C8.7589884,25.6828418 9.3951832,25.5306037 10.0165898,25.4472544 C10.132098,26.5317999 10.3568196,27.925441 10.3568196,27.925441 L10.3604167,27.968622 C10.3775032,28.0389166 10.3933906,28.1071023 10.4105769,28.1815142 C10.5385753,28.729511 10.6656743,29.0516612 11.1770682,29.2448709 C11.6792695,29.4353694 12.8676258,29.6119093 14.0660741,29.6739694 C14.5117203,29.6971666 15.0175186,29.6695509 15.5291123,29.5947372 C16.2878099,29.4833706 16.9740649,29.2781102 17.2362567,29.0832937 C17.6177538,28.7999059 17.8217918,28.0868173 17.9568846,27.6150401 L17.9973524,27.475957 C18.0451144,27.3150828 18.0865815,27.1461749 18.1266498,26.982288 C18.184304,26.7471023 18.2437567,26.5039833 18.2946163,26.4200315 C18.3038091,26.40537 18.346575,26.3546574 18.5133427,26.3300544 C18.5649017,26.3226233 18.6229556,26.3186064 18.686705,26.317803 C18.7504544,26.3186064 18.8084084,26.3226233 18.8600673,26.3300544 C19.026735,26.3546574 19.0696009,26.40537 19.0787936,26.4200315 C19.1295533,26.5039833 19.1891061,26.7471023 19.2466603,26.982288 C19.2868284,27.1461749 19.3282955,27.3150828 19.3760576,27.475957 L19.4164255,27.6150401 C19.5515183,28.0868173 19.7556561,28.7999059 20.1371532,29.0832937 C20.399345,29.2781102 21.0855001,29.4833706 21.8441977,29.5947372 C22.3557914,29.6695509 22.8616897,29.6971666 23.307236,29.6739694 C24.5057841,29.6119093 25.6940406,29.4353694 26.1963416,29.2448709 C26.7076358,29.0516612 26.8347348,28.729511 26.9628331,28.1815142 C26.9800194,28.1071023 26.9959068,28.0389166 27.0128933,27.968622 L27.0164905,27.925441 C27.0164905,27.925441 27.241212,26.5317999 27.3567203,25.4472544 C27.9782267,25.5306037 28.6144215,25.6828418 28.6144215,25.6828418 L28.7292303,24.9137182 C28.1271085,24.6577454 27.4230676,24.5676678 27.4230676,24.5676678 L27.4230676,24.5676678 L27.4230676,24.5676678 Z" id="Shape" fill="#EEEFF3"></path>
            </g>
        </g>
    </g>
</svg>