<?xml version="1.0" encoding="UTF-8" standalone="no"?>
<svg width="89px" height="102px" viewBox="0 0 89 102" version="1.1" xmlns="http://www.w3.org/2000/svg" xmlns:xlink="http://www.w3.org/1999/xlink">
    <!-- Generator: Sketch 39.1 (31720) - http://www.bohemiancoding.com/sketch -->
    <title>tech-icons</title>
    <desc>Created with Sketch.</desc>
    <defs></defs>
    <g id="Page-1" stroke="none" stroke-width="1" fill="none" fill-rule="evenodd">
        <g id="JS">
            <polygon id="Polygon-Copy-2-Copy-8" fill="#EEEFF3" points="44.1694305 0 88.3345912 25.5 88.3345912 76.5 44.1672956 102 2.81954404e-14 76.5 0 25.5"></polygon>
            <g id="Group-4" transform="translate(14.000000, 32.000000)" fill="#33373B">
                <path d="M0.000141114375,33.4999046 L6.80437135,29.3987413 C8.11703509,31.7167413 9.31114844,33.6779963 12.1754116,33.6779963 C14.920983,33.6779963 16.6519604,32.6083229 16.6519604,28.4477023 L16.6519604,0.152669271 L25.0075079,0.152669271 L25.0075079,28.5653522 C25.0075079,37.1845841 19.9346785,41.1077966 12.5336032,41.1077966 C5.84947583,41.1077966 1.96948961,37.6599632 0,33.4992017" id="Shape"></path>
                <path d="M30.0939057,33.0839832 L36.8972892,29.1607707 C38.6882477,32.0737675 41.0159288,34.2135355 45.1338626,34.2135355 C48.5959588,34.2135355 50.8036781,32.4895485 50.8036781,30.11181 C50.8036781,27.2585517 48.5358367,26.2479143 44.7159723,24.5840878 L42.6276501,23.6918033 C36.5992197,21.1362544 32.6002595,17.9263918 32.6002595,11.1497805 C32.6002595,4.90828708 37.3748782,0.152669271 44.8356518,0.152669271 C50.1475581,0.152669271 53.9672811,1.99557147 56.7124291,6.81050611 L50.2068331,10.9712675 C48.7743488,8.4154374 47.2230319,7.40508127 44.8357931,7.40508127 C42.3887146,7.40508127 40.836833,8.95055493 40.836833,10.9712675 C40.836833,13.4679209 42.3887146,14.4786987 45.9693611,16.0243132 L48.0581067,16.9158949 C55.1605478,19.9476662 59.1595076,23.038333 59.1595076,29.9928947 C59.1595076,37.4831369 53.250898,41.5843002 45.3130998,41.5843002 C37.5542563,41.5843002 32.5407022,37.8990583 30.094047,33.0839832" id="Shape"></path>
            </g>
        </g>
    </g>
</svg>