<?xml version="1.0" encoding="UTF-8" standalone="no"?>
<svg width="89px" height="102px" viewBox="0 0 89 102" version="1.1" xmlns="http://www.w3.org/2000/svg" xmlns:xlink="http://www.w3.org/1999/xlink">
    <!-- Generator: Sketch 39.1 (31720) - http://www.bohemiancoding.com/sketch -->
    <title>tech-icons</title>
    <desc>Created with Sketch.</desc>
    <defs></defs>
    <g id="Page-1" stroke="none" stroke-width="1" fill="none" fill-rule="evenodd">
        <g id="PHP">
            <polygon id="Polygon-Copy-2-Copy-10" fill="#EEEFF3" points="44.1694305 0 88.3345912 25.5 88.3345912 76.5 44.1672956 102 2.81954404e-14 76.5 0 25.5"></polygon>
            <g id="Group" transform="translate(11.000000, 34.000000)">
                <ellipse id="Oval" fill="#33373B" cx="33.5" cy="17.403394" rx="33.5" ry="17.403394"></ellipse>
                <path d="M9.40753425,27.7080352 L13.0787671,9.15968106 L21.5684931,9.15968106 C25.239726,9.38867308 27.0753425,11.2206093 27.0753425,14.4264976 C27.0753425,19.9223063 22.7157534,23.1281946 18.8150685,22.8992026 L14.6849315,22.8992026 L13.7671233,27.7080352 L9.40753425,27.7080352 Z M15.6027397,19.4643222 L16.75,12.5945614 L19.7328767,12.5945614 C21.3390411,12.5945614 22.4863014,13.2815375 22.4863014,14.6554897 C22.2568493,18.5483541 20.4212329,19.2353302 18.3561644,19.4643222 L15.6027397,19.4643222 Z" id="Shape" fill="#EEEFF3"></path>
                <path d="M26.2220677,22.8992026 L29.8933005,4.35084849 L34.2528895,4.35084849 L33.3350813,9.15968106 L37.4652183,9.15968106 C41.1364511,9.38867308 42.5131635,11.2206093 42.0542595,13.5105295 L40.448095,22.8992026 L35.859054,22.8992026 L37.4652183,14.4264976 C37.6946703,13.2815375 37.6946703,12.5945614 36.088506,12.5945614 L32.6467252,12.5945614 L30.5816567,22.8992026 L26.2220677,22.8992026 L26.2220677,22.8992026 L26.2220677,22.8992026 Z" id="Shape" fill="#EEEFF3"></path>
                <path d="M40.1541097,27.7080352 L43.8253425,9.15968106 L52.3150685,9.15968106 C55.9863013,9.38867308 57.8219178,11.2206093 57.8219178,14.4264976 C57.8219178,19.9223063 53.4623289,23.1281946 49.5616438,22.8992026 L45.4315068,22.8992026 L44.5136987,27.7080352 L40.1541097,27.7080352 L40.1541097,27.7080352 L40.1541097,27.7080352 Z M46.349315,19.4643222 L47.4965753,12.5945614 L50.479452,12.5945614 C52.0856165,12.5945614 53.2328766,13.2815375 53.2328766,14.6554897 C53.0034247,18.5483541 51.1678081,19.2353302 49.1027396,19.4643222 L46.349315,19.4643222 L46.349315,19.4643222 L46.349315,19.4643222 Z" id="Shape" fill="#EEEFF3"></path>
            </g>
        </g>
    </g>
</svg>