<?xml version="1.0" encoding="UTF-8" standalone="no"?>
<svg width="89px" height="102px" viewBox="0 0 89 102" version="1.1" xmlns="http://www.w3.org/2000/svg" xmlns:xlink="http://www.w3.org/1999/xlink">
    <!-- Generator: Sketch 39.1 (31720) - http://www.bohemiancoding.com/sketch -->
    <title>tech-icons</title>
    <desc>Created with Sketch.</desc>
    <defs></defs>
    <g id="Page-1" stroke="none" stroke-width="1" fill="none" fill-rule="evenodd">
        <g id="SLACK">
            <polygon id="Polygon-Copy-2-Copy-7" fill="#EEEFF3" points="44.1694305 0 88.3345912 25.5 88.3345912 76.5 44.1672956 102 2.81954404e-14 76.5 0 25.5"></polygon>
            <g id="Group" transform="translate(17.949203, 26.000000)" fill="#33373B">
                <path d="M27.6019622,18.4144129 L30.5879245,27.6014659 L21.4001658,30.5877639 C20.4253591,27.5875665 19.3876007,24.3936167 18.4147652,21.3994804 C21.414702,20.4247385 24.6082431,19.387113 27.6019622,18.4144129 Z M24.9039924,10.1134405 L23.4743345,5.71474346 C22.7290588,3.42226747 23.9837737,0.95984451 26.2766514,0.214970608 C28.5691274,-0.530305062 31.0315503,0.724409717 31.7764243,3.01728747 C31.7764243,3.01728747 32.3357906,4.73879393 33.205437,7.41522131 L37.6028327,5.98593541 C39.8957104,5.24106152 42.3581335,6.49577629 43.1030075,8.78825229 C43.8478812,11.0811301 42.5931665,13.543553 40.3006905,14.2884269 C40.3006905,14.2884269 38.579293,14.8477314 35.9030107,15.7172909 C36.8756871,18.7108078 37.9132609,21.9040562 38.8879304,24.9037143 L43.285409,23.4744015 C45.577885,22.7295275 48.0403081,23.9842424 48.7851819,26.2767184 C49.5300558,28.5695962 48.2757428,31.032019 45.9828651,31.776893 C45.9828651,31.776893 44.2615839,32.3361661 41.5854566,33.205684 C42.4761618,35.9469502 43.0536751,37.724346 43.0600184,37.7439196 C43.7992677,40.0191196 42.3870606,42.4795338 40.0704786,43.146465 C37.8495171,43.7856745 35.5357475,42.5819841 34.7607411,40.4401703 L33.2858673,35.9023556 C30.2916763,36.8752163 27.0975141,37.91305 24.0970213,38.887956 C24.9877077,41.6292391 25.565209,43.4066109 25.5715523,43.4260941 C26.3108016,45.7016959 24.8985945,48.1621101 22.5820125,48.8286396 C20.361051,49.4682508 18.0472813,48.2645604 17.272275,46.1227466 L15.7973103,41.5846523 C13.0544308,42.47585 11.2758134,43.0537399 11.256233,43.0600855 C8.98103293,43.7993345 6.52061879,42.3871277 5.85368748,40.0705456 C5.214478,37.8495839 6.41816851,35.5358143 8.5599823,34.7612098 L13.0999585,33.285581 L10.1134011,24.0966969 C7.37143649,24.9876047 5.59354443,25.565275 5.57405843,25.5716194 C3.29845661,26.3108684 0.838042485,24.8986616 0.171512924,22.5820795 C-0.468098324,20.3611178 0.735592191,18.0473483 2.87740599,17.2727437 L7.41602651,15.7975555 L5.98586844,11.3973198 C5.24059278,9.10444201 6.49530755,6.64201907 8.78818532,5.89714516 C11.0806613,5.15227126 13.5430843,6.40698604 14.2883599,8.69946203 C14.2883599,8.69946203 14.8479511,10.4217419 15.7178925,13.0991993 L24.9039924,10.1134405 Z" id="Combined-Shape"></path>
            </g>
        </g>
    </g>
</svg>