<?xml version="1.0" encoding="UTF-8" standalone="no"?>
<svg width="89px" height="102px" viewBox="0 0 89 102" version="1.1" xmlns="http://www.w3.org/2000/svg" xmlns:xlink="http://www.w3.org/1999/xlink">
    <!-- Generator: Sketch 39.1 (31720) - http://www.bohemiancoding.com/sketch -->
    <title>tech-icons</title>
    <desc>Created with Sketch.</desc>
    <defs></defs>
    <g id="Page-1" stroke="none" stroke-width="1" fill="none" fill-rule="evenodd">
        <g id="GIT">
            <polygon id="Polygon-Copy-2-Copy-4" fill="#EEEFF3" points="44.1694305 0 88.3345912 25.5 88.3345912 76.5 44.1672956 102 2.81954404e-14 76.5 0 25.5"></polygon>
            <g id="Group" transform="translate(7.167296, 25.000000)">
                <path d="M13.6273465,35.9848485 L13.0203152,38.0575758 C13.0203152,38.0575758 12.875784,38.8060606 13.569534,38.95 C14.3210965,38.9212121 14.263284,38.230303 14.2054715,38.0287879 L13.6273465,35.9848485 L13.6273465,35.9848485 L13.6273465,35.9848485 Z" id="Shape" fill="#33373B"></path>
                <path d="M73.9421875,27.512105 L74,27.2530141 C67.9007813,26.0439232 61.6570313,26.0151353 57.8703125,26.1878626 C58.4773437,23.9711959 58.6796875,21.3802868 58.6796875,18.5302868 C58.6796875,14.4136201 57.11875,11.131802 54.6328125,8.65604438 C55.0664062,7.24543832 55.6445312,4.10755953 54.0546875,0.106044381 C54.0546875,0.106044381 51.221875,-0.786379861 44.7757813,3.50301408 C42.2609375,2.86968075 39.5726563,2.55301408 36.884375,2.55301408 C33.9359375,2.55301408 30.9585938,2.9272565 28.1546875,3.67574135 C21.50625,-0.843955619 18.5867187,0.0772565027 18.5867187,0.0772565027 C16.6789062,4.8272565 17.8640625,8.36816559 18.2109375,9.23180196 C15.95625,11.6499838 14.5976562,14.7302868 14.5976562,18.5014989 C14.5976562,21.3514989 14.915625,23.9136201 15.725,26.1302868 C11.909375,25.9863474 5.896875,26.0439232 0,27.2242262 L0.0578125,27.4833171 C5.9546875,26.3030141 12.025,26.2742262 15.8117188,26.4181656 C15.9851563,26.8787717 16.1875,27.3393777 16.3898438,27.7711959 C12.6320313,27.8863474 6.24375,28.3757414 0.115625,30.1030141 L0.20234375,30.362105 C6.38828125,28.6348323 12.834375,28.1742262 16.5632813,28.0590747 C18.8179688,32.2045292 23.2117188,34.9105898 31.0742188,35.7454383 C29.946875,36.4939232 28.8195313,37.7605898 28.3570312,39.9196807 C26.825,40.6393777 22.0265625,42.4242262 19.1359375,37.472711 C19.1359375,37.472711 17.5171875,34.5363474 14.4242187,34.3060444 C14.4242187,34.3060444 11.4179687,34.2484686 14.221875,36.1772565 C14.221875,36.1772565 16.2164062,37.1272565 17.6039062,40.6681656 C17.6039062,40.6681656 19.425,46.7136201 28.1257812,44.7560444 L28.1257812,50.9454383 C28.1257812,50.9454383 27.9523437,53.162105 25.9,53.881802 C25.9,53.881802 24.6859375,54.7166504 25.9867187,55.1772565 C25.9867187,55.1772565 31.6234375,55.6378626 31.6234375,51.031802 L31.6234375,44.2378626 C31.6234375,44.2378626 31.3921875,41.531802 32.721875,40.6105898 L32.721875,51.7802868 C32.721875,51.7802868 32.6351562,54.4575595 31.2476562,55.4651353 C31.2476562,55.4651353 30.3226562,57.1060444 32.3460937,56.6742262 C32.3460937,56.6742262 36.2195312,56.1272565 36.3929687,51.6075595 L36.4796875,40.2939232 L37.4046875,40.2939232 L37.4914062,51.6075595 C37.6648437,56.0984686 41.5382812,56.6742262 41.5382812,56.6742262 C43.5617187,57.1348323 42.6367188,55.4651353 42.6367188,55.4651353 C41.2492187,54.4575595 41.1625,51.7802868 41.1625,51.7802868 L41.1625,40.6969535 C42.4921875,41.7333171 42.2609375,44.2378626 42.2609375,44.2378626 L42.2609375,51.031802 C42.2609375,55.6378626 47.8976563,55.1772565 47.8976563,55.1772565 C49.1984375,54.7166504 47.984375,53.881802 47.984375,53.881802 C45.9609375,53.1333171 45.7585938,50.9454383 45.7585938,50.9454383 L45.7585938,42.0211959 C45.7585938,38.5378626 44.284375,36.6954383 42.8390625,35.7454383 C51.221875,34.9105898 55.2398438,32.2333171 57.0898438,28.0302868 C60.7609375,28.1166504 67.3804688,28.5772565 73.6820313,30.362105 L73.76875,30.1030141 C67.4960938,28.3469535 60.934375,27.8863474 57.2054688,27.7711959 C57.3789063,27.3393777 57.5234375,26.9075595 57.6679688,26.4469535 C61.5414063,26.3030141 67.8140625,26.3030141 73.9421875,27.512105 L73.9421875,27.512105 L73.9421875,27.512105 Z" id="Shape" fill="#33373B"></path>
                <path d="M50.4414062,18.3324683 C52.2335937,19.9733774 53.303125,21.9309532 53.303125,24.0324683 C53.303125,33.9354986 45.903125,34.1945895 36.76875,34.1945895 C27.634375,34.1945895 20.234375,32.8127714 20.234375,24.0324683 C20.234375,21.9309532 21.275,19.9733774 23.0671875,18.3612562 C26.0445313,15.6551956 31.0742188,17.0945895 36.76875,17.0945895 C42.4632813,17.0945895 47.4640625,15.6264077 50.4414062,18.3324683 L50.4414062,18.3324683 L50.4414062,18.3324683 Z" id="Shape" fill="#EEEFF3"></path>
                <path d="M30.29375,24.5848485 C30.29375,26.3984848 29.253125,27.8666667 28.0101563,27.8666667 C26.7382812,27.8666667 25.7265625,26.3984848 25.7265625,24.5848485 C25.7265625,22.7712121 26.7671875,21.3030303 28.0101563,21.3030303 C29.253125,21.3030303 30.29375,22.7712121 30.29375,24.5848485 L30.29375,24.5848485 L30.29375,24.5848485 Z" id="Shape" fill="#33373B"></path>
                <path d="M48.5046875,24.5848485 C48.5046875,26.3984848 47.4640625,27.8666667 46.2210938,27.8666667 C44.9492188,27.8666667 43.9375,26.3984848 43.9375,24.5848485 C43.9375,22.7712121 44.978125,21.3030303 46.2210938,21.3030303 C47.4929688,21.3030303 48.5046875,22.7712121 48.5046875,24.5848485 L48.5046875,24.5848485 L48.5046875,24.5848485 Z" id="Shape" fill="#33373B"></path>
                <path d="M37.578125,28.7878788 C37.578125,29.2484848 37.2023437,29.6515152 36.7109375,29.6515152 C36.2484375,29.6515152 35.84375,29.2772727 35.84375,28.7878788 C35.84375,28.2984848 36.2195312,27.9242424 36.7109375,27.9242424 C37.1734375,27.9242424 37.578125,28.2984848 37.578125,28.7878788 L37.578125,28.7878788 L37.578125,28.7878788 Z" id="Shape" fill="#33373B"></path>
                <path d="M34.7056087,30.8786406 C34.6477962,30.7347012 34.7345149,30.5907618 34.8790462,30.533186 C35.0235774,30.4756103 35.1681087,30.5619739 35.2259212,30.7059133 C35.4571712,31.3392466 36.0352962,31.7422769 36.7001399,31.7422769 C37.3649837,31.7422769 37.9431087,31.3104588 38.1743587,30.7059133 C38.2321712,30.5619739 38.3767024,30.4756103 38.5212337,30.533186 C38.6657649,30.5907618 38.7524837,30.7347012 38.6946712,30.8786406 C38.4056087,31.7134891 37.5962337,32.2892466 36.7001399,32.2892466 C35.8040462,32.2892466 34.9946712,31.7134891 34.7056087,30.8786406 L34.7056087,30.8786406 L34.7056087,30.8786406 Z" id="Shape" fill="#33373B"></path>
                <path d="M15.0601563,35.3515152 C14.7421875,35.3515152 14.453125,35.1787879 14.453125,34.9484848 C14.453125,34.7181818 14.7132812,34.5454545 15.0601563,34.5454545 C15.4070313,34.5454545 15.6671875,34.7181818 15.6671875,34.9484848 C15.6671875,35.1787879 15.4070313,35.3515152 15.0601563,35.3515152 Z" id="Shape" fill="#EEEFF3"></path>
                <path d="M17.4015625,35.8121212 C17.4015625,36.0424242 17.1414063,36.2151515 16.7945313,36.2151515 C16.4765625,36.2151515 16.1875,36.0424242 16.1875,35.8121212 C16.1875,35.5818182 16.4476563,35.4090909 16.7945313,35.4090909 C17.1414063,35.4090909 17.4015625,35.5818182 17.4015625,35.8121212 L17.4015625,35.8121212 L17.4015625,35.8121212 Z" id="Shape" fill="#EEEFF3"></path>
                <path d="M18.5578125,36.9663866 C18.5578125,37.1966896 18.2976563,37.3694169 17.9507812,37.3694169 C17.6328125,37.3694169 17.34375,37.1966896 17.34375,36.9663866 C17.34375,36.7360835 17.6039062,36.5633563 17.9507812,36.5633563 C18.2976563,36.5345684 18.5578125,36.7360835 18.5578125,36.9663866 L18.5578125,36.9663866 L18.5578125,36.9663866 Z" id="Shape" fill="#EEEFF3"></path>
                <path d="M19.425,38.4057805 C19.425,38.6360835 19.1648437,38.8088108 18.8179687,38.8088108 C18.5,38.8088108 18.2109375,38.6360835 18.2109375,38.4057805 C18.2109375,38.1754775 18.4710937,38.0027502 18.8179687,38.0027502 C19.1648437,37.9739623 19.425,38.1754775 19.425,38.4057805 L19.425,38.4057805 L19.425,38.4057805 Z" id="Shape" fill="#EEEFF3"></path>
                <path d="M20.2921875,39.5545455 C20.2921875,39.7848485 20.0320312,39.9575758 19.6851562,39.9575758 C19.3671875,39.9575758 19.078125,39.7848485 19.078125,39.5545455 C19.078125,39.3242424 19.3382813,39.1515152 19.6851562,39.1515152 C20.0320312,39.1515152 20.2921875,39.3242424 20.2921875,39.5545455 L20.2921875,39.5545455 L20.2921875,39.5545455 Z" id="Shape" fill="#EEEFF3"></path>
                <path d="M21.7375,40.7088108 C21.7375,40.9391138 21.4773437,41.1118411 21.1304687,41.1118411 C20.8125,41.1118411 20.5234375,40.9391138 20.5234375,40.7088108 C20.5234375,40.4785078 20.7835938,40.3057805 21.1304687,40.3057805 C21.4773437,40.2769926 21.7375,40.4785078 21.7375,40.7088108 L21.7375,40.7088108 L21.7375,40.7088108 Z" id="Shape" fill="#EEEFF3"></path>
                <path d="M23.7609375,41.569697 C23.7609375,41.8 23.5007812,41.9727273 23.1539062,41.9727273 C22.8359375,41.9727273 22.546875,41.8 22.546875,41.569697 C22.546875,41.3393939 22.8070313,41.1666667 23.1539062,41.1666667 C23.5007812,41.1666667 23.7609375,41.3393939 23.7609375,41.569697 L23.7609375,41.569697 L23.7609375,41.569697 Z" id="Shape" fill="#EEEFF3"></path>
                <path d="M25.4953125,41.569697 C25.4953125,41.8 25.2351562,41.9727273 24.8882812,41.9727273 C24.5703125,41.9727273 24.28125,41.8 24.28125,41.569697 C24.28125,41.3393939 24.5414063,41.1666667 24.8882812,41.1666667 C25.2351562,41.1666667 25.4953125,41.3393939 25.4953125,41.569697 L25.4953125,41.569697 L25.4953125,41.569697 Z" id="Shape" fill="#EEEFF3"></path>
                <path d="M27.51875,41.2818182 C27.51875,41.5121212 27.2585937,41.6848485 26.9117187,41.6848485 C26.59375,41.6848485 26.3046875,41.5121212 26.3046875,41.2818182 C26.3046875,41.0515152 26.5648438,40.8787879 26.9117187,40.8787879 C27.2296875,40.8787879 27.51875,41.0515152 27.51875,41.2818182 L27.51875,41.2818182 L27.51875,41.2818182 Z" id="Shape" fill="#EEEFF3"></path>
            </g>
        </g>
    </g>
</svg>