<?xml version="1.0" encoding="UTF-8" standalone="no"?>
<svg width="89px" height="102px" viewBox="0 0 89 102" version="1.1" xmlns="http://www.w3.org/2000/svg" xmlns:xlink="http://www.w3.org/1999/xlink">
    <!-- Generator: Sketch 39.1 (31720) - http://www.bohemiancoding.com/sketch -->
    <title>tech-icons</title>
    <desc>Created with Sketch.</desc>
    <defs></defs>
    <g id="Page-1" stroke="none" stroke-width="1" fill="none" fill-rule="evenodd">
        <g id="FLASH">
            <polygon id="Polygon-Copy-2-Copy-10" fill="#EEEFF3" points="44.1694305 0 88.3345912 25.5 88.3345912 76.5 44.1672956 102 2.81954404e-14 76.5 0 25.5"></polygon>
            <path d="M58.3011784,39.0197007 C59.3813608,38.6455366 60.5869441,38.4375543 62,38.4375543 L62,30 C55.931812,30 51.0692075,32.2862755 47.3693664,36.9001169 C46.0812018,38.5211551 44.7925275,40.5576479 43.7118354,43.0513958 L40.9683049,49.7435305 C40.0125041,52.4452607 39.1810849,54.440463 38.5158476,55.7704279 C37.6431377,57.6825392 36.8117185,59.178686 35.9802993,60.2593781 C34.9408978,61.5480524 33.8602057,62.4207622 32.6551321,63.0029086 C31.3251672,63.6263456 29.78722,63.9587094 28,63.9587094 L28,72.4793547 C34.0686977,72.4793547 38.931812,70.1517887 42.6311434,65.5797475 C43.6705448,64.2079822 44.668146,62.6287445 45.6244565,60.7584335 L47.9520225,55.4380641 L57.7190321,55.4380641 L57.7190321,46.9581996 L51.2771897,46.9581996 C51.9006267,45.5451438 52.5235539,44.3395604 53.1887913,43.3006687 C53.8948094,42.2199766 54.6436475,41.3054664 55.4327566,40.6820294 C56.3059762,39.9342109 57.2199766,39.3938649 58.3011784,39.0197007 L58.3011784,39.0197007 L58.3011784,39.0197007 Z" id="Shape" fill="#33373B"></path>
        </g>
    </g>
</svg>