<?xml version="1.0" encoding="UTF-8" standalone="no"?>
<svg width="89px" height="102px" viewBox="0 0 89 102" version="1.1" xmlns="http://www.w3.org/2000/svg" xmlns:xlink="http://www.w3.org/1999/xlink">
    <!-- Generator: Sketch 39.1 (31720) - http://www.bohemiancoding.com/sketch -->
    <title>tech-icons</title>
    <desc>Created with Sketch.</desc>
    <defs></defs>
    <g id="Page-1" stroke="none" stroke-width="1" fill="none" fill-rule="evenodd">
        <g id="Sass">
            <polygon id="Polygon-Copy-2" fill="#EEEFF3" points="44.1694305 0 88.3345912 25.5 88.3345912 76.5 44.1672956 102 2.81954404e-14 76.5 0 25.5"></polygon>
            <path d="M61.3492482,56.5163315 C60.7363474,55.3032987 60.1234465,54.2433633 60.0214241,53.4518275 C59.9065052,52.5324763 59.7660488,51.9705228 59.9065052,50.8725366 C60.0468339,49.7742949 60.6852723,48.2165054 60.6852723,48.0888177 C60.6723758,47.9738988 60.5446882,47.412073 59.2296329,47.3993043 C57.9145776,47.3865355 56.7780296,47.6546796 56.6503419,47.9994363 C56.5226543,48.344193 56.2672789,49.1358566 56.101285,49.9530577 C55.8714472,51.1533218 53.470919,55.4053211 52.1046609,57.6398553 C51.6577541,56.7715792 51.2746911,56.0054532 51.1979508,55.3924247 C51.0831596,54.4732012 50.9425754,53.9112477 51.0831596,52.8132615 C51.223616,51.7150198 51.8620543,50.1573579 51.8620543,50.0296703 C51.8492856,49.9147514 51.7215979,49.3529256 50.4065426,49.3401568 C49.0912319,49.3273881 47.9549394,49.5955322 47.8272517,49.9402889 C47.699564,50.2850456 47.5591076,51.1022467 47.2781947,51.8939102 C47.0099229,52.6855738 43.8177312,59.7850082 42.9877613,61.6364794 C42.566392,62.5813681 42.1962255,63.3347254 41.9279537,63.8454761 C41.6598096,64.3689955 41.5321219,64.6116021 41.5321219,64.6116021 C41.3533592,64.9437177 41.1618277,65.2500404 41.0723186,65.2500404 C41.0084748,65.2500404 40.8807871,64.394533 41.0978561,63.2199342 C41.5703005,60.7554345 42.7194895,56.9121633 42.7068485,56.7717069 C42.7068485,56.707863 42.9237898,56.0309907 41.9661323,55.6863617 C41.0340123,55.341605 40.7021521,55.9161995 40.6254118,55.9161995 C40.5487992,55.9161995 40.4849553,56.1204998 40.4849553,56.1204998 C40.4849553,56.1204998 41.5192254,51.7920155 38.5057965,51.7920155 C36.6160189,51.7920155 34.0111905,53.8477869 32.721545,55.7247957 C31.904344,56.1717025 30.1677917,57.1164636 28.3290892,58.1253239 C27.626807,58.5083869 26.8989873,58.9169874 26.2094739,59.2872817 L26.0691452,59.1338011 C22.4172778,55.2393272 15.6626001,52.4812735 15.943513,47.2460791 C16.0456631,45.3435328 16.709639,40.3254074 28.9167079,34.2474743 C38.9146524,29.2676552 46.9206692,30.6339133 48.3123371,33.6728798 C50.291496,38.0142606 44.0348002,46.0841213 33.6411516,47.2460791 C29.6828339,47.6929859 27.6013972,46.1607339 27.0780054,45.5861394 C26.5289485,44.9860073 26.4523359,44.9604698 26.2480356,45.0753887 C25.9160476,45.2541514 26.1203479,45.7904396 26.2480356,46.1096588 C26.554486,46.9140911 27.8313627,48.344193 30.0020531,49.059244 C31.9044716,49.6849136 36.5524305,50.0296703 42.1706879,47.8589799 C48.46569,45.4201454 53.3816653,38.6526989 51.9387946,32.9961352 C50.4703864,27.2374213 40.9193488,25.3476438 31.8918306,28.5526043 C26.516052,30.4679193 20.6934943,33.4558108 16.5053387,37.3758222 C11.5255196,42.0236534 10.7338561,46.0841213 11.065844,47.7695985 C12.2279295,53.7836877 20.5147315,57.7036992 23.8346109,60.6022093 C23.668617,60.691463 23.5153918,60.7808443 23.3749353,60.8575846 C21.7149956,61.674658 15.394456,64.9818963 13.8111289,68.4804108 C12.0235015,72.4387285 14.0920418,75.2862912 15.4710686,75.6693542 C19.7358368,76.8568496 24.1027551,74.7244655 26.4649769,71.2130546 C28.8143024,67.7016437 28.5335172,63.1431939 27.448172,61.0618849 L28.7121522,60.2191463 C29.5550185,59.7211644 30.3849884,59.2614887 31.1126804,58.8655293 C30.7042076,59.976412 30.4103982,61.291595 30.2573007,63.20691 C30.078538,65.4543407 30.9978892,68.3654919 32.210922,69.5146809 C32.7472103,70.0125351 33.3856486,70.0254316 33.7814804,70.0254316 C35.1860447,70.0254316 35.8244831,68.8633461 36.5267653,67.4716782 C37.3950414,65.7734322 38.1611674,63.8070421 38.1611674,63.8070421 C38.1611674,63.8070421 37.2035099,69.1316179 39.8211071,69.1316179 C40.7787647,69.1316179 41.7364222,67.8930475 42.1705602,67.2546092 C42.349323,66.9865927 42.4003981,66.8972114 42.4003981,66.8972114 C42.7834611,66.207698 43.6389684,64.6882147 44.9158451,62.1727676 C46.5628884,58.9295008 48.1463432,54.8690329 48.1463432,54.8690329 C48.1463432,54.8690329 48.2995684,55.8649967 48.7720127,57.4993989 C49.0527979,58.4699529 49.6656987,59.5296329 50.1381431,60.563903 C49.7550801,61.1001912 49.5252423,61.4067693 49.5252423,61.4067693 C49.2316884,61.8281386 48.886804,62.2624043 48.5294062,62.6964147 C47.2269919,64.2542043 45.6692024,66.0291906 45.4649021,66.5399413 C45.2222955,67.1399456 45.2733706,67.5868525 45.745815,67.9445056 C46.0905717,68.199881 46.7034725,68.2508283 47.3546796,68.199881 C48.5294062,68.1231407 49.3466073,67.8295867 49.7552078,67.6506963 C50.3936461,67.4208585 51.1214659,67.0761018 51.823748,66.5653511 C53.1006247,65.62059 53.8795195,64.2798695 53.8029069,62.4922422 C53.7646006,61.5090471 53.4453814,60.5386208 53.0495497,59.6192696 C53.1644686,59.4532756 53.2795152,59.287154 53.3943064,59.1085189 C55.4117715,56.1588061 56.9695611,52.915667 56.9695611,52.915667 C56.9695611,52.915667 57.1227863,53.9116308 57.5952307,55.5460329 C57.8377096,56.3760028 58.3230504,57.2827129 58.7571885,58.1765266 C56.867411,59.7215474 55.6799157,61.5091748 55.2713151,62.6839013 C54.5179579,64.8545917 55.1053211,65.8377868 56.2162039,66.0676246 C56.7140581,66.1697747 57.4292367,65.9399369 57.9653972,65.7100991 C58.6293731,65.4930301 59.4338054,65.1226081 60.1745216,64.5736788 C61.4513983,63.6287901 62.6771999,62.3136071 62.6133561,60.5387485 C62.5750498,59.7215474 62.3579808,58.9171151 62.0642991,58.1509891 C63.6731637,57.4870132 65.7543451,57.1039502 68.3976075,57.4231694 C74.0797088,58.0871453 75.2033603,61.6368625 74.9864189,63.1180394 C74.7693499,64.5993441 73.5818546,65.4164175 73.1858951,65.6717928 C72.7900633,65.9143994 72.6623757,66.0039084 72.700682,66.1825435 C72.751757,66.4508153 72.9305198,66.4379188 73.2752765,66.3869714 C73.7477208,66.3102312 76.2631679,65.1739386 76.3653181,62.4415501 C76.5185433,58.9296285 73.1858951,55.0989984 67.273956,55.137177 C64.9883467,55.1500735 63.0091879,55.6990028 61.3492482,56.5163315 Z M23.4515479,69.9106404 C21.5745392,71.9664118 18.9314044,72.7453066 17.807753,72.0813307 C16.5947201,71.3790486 17.0670368,68.3528508 19.3783113,66.1693917 C20.7828757,64.8414399 22.6088093,63.6156383 23.8090734,62.862281 C24.0772175,62.696287 24.4858181,62.4538082 24.9710312,62.1599988 C25.0476438,62.1090515 25.0987189,62.0833862 25.0987189,62.0833862 C25.1881002,62.0323112 25.2902504,61.9684673 25.3924005,61.9046235 C26.2479079,65.0202026 25.4307068,67.7527188 23.4515479,69.9106404 L23.4515479,69.9106404 L23.4515479,69.9106404 Z M37.1779724,60.5766717 C36.5267653,62.1727676 35.1477384,66.2715418 34.3177686,66.041704 C33.60259,65.8501725 33.1685796,62.7473621 34.1771845,59.6828581 C34.6879351,58.1377096 35.7732803,56.2991348 36.4117187,55.5839562 C37.4461165,54.4347672 38.5696403,54.0517042 38.8506808,54.5241485 C39.1826688,55.137177 37.5865729,59.5807079 37.1779724,60.5766717 L37.1779724,60.5766717 Z M48.5038686,65.9906289 C48.2229558,66.131213 47.9675804,66.2332355 47.8526615,66.1567506 C47.7632802,66.1056755 47.9674527,65.914144 47.9674527,65.914144 C47.9674527,65.914144 49.3847859,64.3946607 49.9466116,63.6923786 C50.2658308,63.2839057 50.6488938,62.8114613 51.0574943,62.2750454 L51.0574943,62.4282706 C51.057622,64.2668454 49.2955322,65.492647 48.5038686,65.9906289 L48.5038686,65.9906289 Z M57.2375775,63.9987013 C57.0332773,63.8454761 57.0589425,63.3730317 57.7483282,61.8918547 C58.0166,61.3044915 58.6293731,60.3212964 59.6891808,59.3891764 C59.8168684,59.7722394 59.8936087,60.142406 59.8807123,60.4872904 C59.8680712,62.7856684 58.233669,63.6411758 57.2375775,63.9987013 L57.2375775,63.9987013 Z" id="Shape" fill="#33373B"></path>
        </g>
    </g>
</svg>