<?xml version="1.0" encoding="UTF-8" standalone="no"?>
<svg width="89px" height="102px" viewBox="0 0 89 102" version="1.1" xmlns="http://www.w3.org/2000/svg" xmlns:xlink="http://www.w3.org/1999/xlink">
    <!-- Generator: Sketch 39.1 (31720) - http://www.bohemiancoding.com/sketch -->
    <title>tech-icons</title>
    <desc>Created with Sketch.</desc>
    <defs></defs>
    <g id="Page-1" stroke="none" stroke-width="1" fill="none" fill-rule="evenodd">
        <g id="HTML">
            <polygon id="Polygon-Copy-2-Copy-2" fill="#EEEFF3" points="44.1694305 0 88.3345912 25.5 88.3345912 76.5 44.1672956 102 2.81954404e-14 76.5 0 25.5"></polygon>
            <path d="M44.1773173,32 L24.1672956,32 L24.3584131,34.1420283 L26.417256,55.9995779 L44.1876916,55.9995779 L44.1876916,55.9837539 L53.9985072,55.9837539 L53.0717545,66.3385608 L44.1669439,68.742035 L44.1669439,68.7617119 L44.1424608,68.7682326 L35.2504853,66.3672198 L34.6820557,59.9995076 L26.6672516,59.9995076 L27.7858254,72.5357266 L44.1407026,77.0759545 L44.1774492,77.0657569 L44.1774492,77.0456149 L60.534832,72.5121665 L60.6549176,71.1632672 L62.5311044,50.1436809 L62.7259142,47.9997186 L44.1773177,47.9997186 L33.6671285,47.9997186 L32.8929443,39.9842113 L44.1876907,39.9842113 L44.1876907,39.9647162 L63.4524069,39.9842113 L63.6125801,38.1896054 L63.9763537,34.1420283 L64.1672956,32 L44.1773173,32 Z" id="Combined-Shape" fill="#33373B"></path>
        </g>
    </g>
</svg>