<?xml version="1.0" encoding="UTF-8" standalone="no"?>
<svg width="89px" height="102px" viewBox="0 0 89 102" version="1.1" xmlns="http://www.w3.org/2000/svg" xmlns:xlink="http://www.w3.org/1999/xlink">
    <!-- Generator: Sketch 39.1 (31720) - http://www.bohemiancoding.com/sketch -->
    <title>tech-icons</title>
    <desc>Created with Sketch.</desc>
    <defs></defs>
    <g id="Page-1" stroke="none" stroke-width="1" fill="none" fill-rule="evenodd">
        <g id="WORDPRESS">
            <polygon id="Polygon-Copy-2-Copy-10" fill="#EEEFF3" points="44.1694305 0 88.3345912 25.5 88.3345912 76.5 44.1672956 102 2.81954404e-14 76.5 0 25.5"></polygon>
            <g id="Group" transform="translate(20.000000, 27.000000)" fill="#33373B">
                <path d="M3.46904065,24.4043903 C3.46904065,32.6913658 8.28498374,39.852935 15.2684797,43.246683 L5.28164228,15.8839675 C4.11998374,18.4877398 3.46904065,21.3691789 3.46904065,24.4043903 L3.46904065,24.4043903 L3.46904065,24.4043903 Z M38.5386993,23.3479024 C38.5386993,20.7604634 37.6092927,18.9685772 36.8121464,17.5738699 C35.7508781,15.8493089 34.7561381,14.3888699 34.7561381,12.6643089 C34.7561381,10.7397642 36.2157806,8.94827643 38.2717886,8.94827643 C38.3646097,8.94827643 38.4526505,8.95982927 38.5430813,8.96500813 C34.8182845,5.55253658 29.8557398,3.46904065 24.4051869,3.46904065 C17.0910407,3.46904065 10.6561057,7.22172357 6.91258536,12.9057236 C7.40378049,12.9204634 7.86669107,12.9308211 8.25988619,12.9308211 C10.449748,12.9308211 13.8395122,12.6651057 13.8395122,12.6651057 C14.9681057,12.5985772 15.1011626,14.2562114 13.9737642,14.3896667 C13.9737642,14.3896667 12.8395935,14.5231219 11.5775447,14.589252 L19.201626,37.266691 L23.7833252,23.5255772 L20.5214391,14.5884553 C19.3940406,14.5223252 18.326,14.3888699 18.326,14.3888699 C17.1978049,14.3227398 17.330065,12.5977805 18.4582602,12.6643089 C18.4582602,12.6643089 21.915748,12.9300244 23.9729512,12.9300244 C26.1624146,12.9300244 29.5525772,12.6643089 29.5525772,12.6643089 C30.6819675,12.5977805 30.814626,14.2554146 29.6868293,14.3888699 C29.6868293,14.3888699 28.5502682,14.5223252 27.2906097,14.5884553 L34.8565284,37.0941951 L36.9448049,30.1158781 C37.8499107,27.2200976 38.5386993,25.1401869 38.5386993,23.3479024 L38.5386993,23.3479024 L38.5386993,23.3479024 Z M24.7724879,26.2357155 L18.4909268,44.4888131 C20.3664716,45.0401626 22.3499757,45.3417318 24.4051869,45.3417318 C26.8432357,45.3417318 29.1812927,44.920252 31.3576097,44.1549757 C31.3014391,44.0653415 31.2504471,43.9701301 31.2086179,43.8665529 L24.7724879,26.2357155 L24.7724879,26.2357155 L24.7724879,26.2357155 Z M42.7758049,14.3597886 C42.8658374,15.0266667 42.9168293,15.7425447 42.9168293,16.5126016 C42.9168293,18.6371301 42.5200488,21.0253821 41.3249269,24.0115935 L34.9298293,42.5013252 C41.1540243,38.8717398 45.3405366,32.1284634 45.3405366,24.4047886 C45.340935,20.7648456 44.4111301,17.3420163 42.7758049,14.3597886 L42.7758049,14.3597886 L42.7758049,14.3597886 Z M24.4051869,0 C10.9485122,0 0,10.9477154 0,24.4043903 C0,37.8626585 10.9485122,48.8099757 24.4051869,48.8099757 C37.8614634,48.8099757 48.8115692,37.8626585 48.8115692,24.4043903 C48.8111707,10.9477154 37.8614634,0 24.4051869,0 L24.4051869,0 L24.4051869,0 Z M24.4051869,47.6913415 C11.5655935,47.6913415 1.11903252,37.2447806 1.11903252,24.4043903 C1.11903252,11.5647967 11.5651951,1.11903252 24.4051869,1.11903252 C37.2443821,1.11903252 47.6901464,11.5647967 47.6901464,24.4043903 C47.6901464,37.2447806 37.2443821,47.6913415 24.4051869,47.6913415 L24.4051869,47.6913415 L24.4051869,47.6913415 Z" id="Shape"></path>
            </g>
        </g>
    </g>
</svg>