<?xml version="1.0" encoding="UTF-8" standalone="no"?>
<svg width="89px" height="102px" viewBox="0 0 89 102" version="1.1" xmlns="http://www.w3.org/2000/svg" xmlns:xlink="http://www.w3.org/1999/xlink">
    <!-- Generator: Sketch 39.1 (31720) - http://www.bohemiancoding.com/sketch -->
    <title>tech-icons</title>
    <desc>Created with Sketch.</desc>
    <defs></defs>
    <g id="Page-1" stroke="none" stroke-width="1" fill="none" fill-rule="evenodd">
        <g id="FACEBOOK">
            <polygon id="Polygon-Copy-2-Copy-10" fill="#EEEFF3" points="44.1694305 0 88.3345912 25.5 88.3345912 76.5 44.1672956 102 2.81954404e-14 76.5 0 25.5"></polygon>
            <g id="facebook-icon" transform="translate(23.000000, 30.000000)">
                <path d="M41.9831685,39.5183955 L41.9831685,2.30843284 C41.9831685,1.03323134 40.9455955,0 39.6662472,0 L2.31707865,0 C1.03710112,0 0,1.03338806 0,2.30843284 L0,39.5182388 C0,40.7931269 1.03710112,41.8266716 2.31707865,41.8266716 L39.6662472,41.8266716 C40.9457528,41.8268284 41.9831685,40.7931269 41.9831685,39.5183955 Z" id="Blue_1_" fill="#33373B"></path>
                <path d="M28.9677303,41.9835448 L28.9677303,25.7859627 L34.4248989,25.7859627 L35.2419326,19.4734254 L28.967573,19.4734254 L28.967573,15.4431493 C28.967573,13.6155224 29.4769213,12.370097 32.1076629,12.370097 L35.4627865,12.3685299 L35.4627865,6.72266418 C34.8824944,6.64587313 32.8907191,6.47395522 30.5737978,6.47395522 C25.7362472,6.47395522 22.424382,9.4156791 22.424382,14.8181642 L22.424382,19.4734254 L16.9532135,19.4734254 L16.9532135,25.7859627 L22.424382,25.7859627 L22.424382,41.9833881 L28.9677303,41.9833881 L28.9677303,41.9835448 Z" id="f" fill="#EEEFF3"></path>
            </g>
        </g>
    </g>
</svg>