<?xml version="1.0" encoding="UTF-8" standalone="no"?>
<svg width="64px" height="64px" viewBox="0 0 64 64" version="1.1" xmlns="http://www.w3.org/2000/svg" xmlns:xlink="http://www.w3.org/1999/xlink">
    <!-- Generator: Sketch 39.1 (31720) - http://www.bohemiancoding.com/sketch -->
    <title>fitwork-black 2</title>
    <desc>Created with Sketch.</desc>
    <defs>
        <path d="M36,28 L36,4.00348663 C36,1.79537646 34.209139,0 32,0 C29.7953562,0 28,1.79242202 28,4.00348663 L28,28 L4.00348663,28 C1.79537646,28 3.8020011e-16,29.790861 2.4492936e-16,32 C1.09933858e-16,34.2046438 1.79242202,36 4.00348663,36 L28,36 L28,59.9965134 C28,62.2046235 29.790861,64 32,64 C34.2046438,64 36,62.207578 36,59.9965134 L36,36 L59.9965134,36 C62.2046235,36 64,34.209139 64,32 C64,29.7953562 62.207578,28 59.9965134,28 L36,28 Z" id="path-1"></path>
        <mask id="mask-2" maskContentUnits="userSpaceOnUse" maskUnits="objectBoundingBox" x="0" y="0" width="64" height="64" fill="white">
            <use xlink:href="#path-1"></use>
        </mask>
    </defs>
    <g id="Page-1" stroke="none" stroke-width="1" fill="none" fill-rule="evenodd">
        <use id="Combined-Shape" stroke="#C1C5D3" mask="url(#mask-2)" stroke-width="2" fill="#C1C5D3" xlink:href="#path-1"></use>
    </g>
</svg>